<svg width="18" height="18" viewBox="0 0 18 18" fill="none" xmlns="http://www.w3.org/2000/svg">
<path d="M4 11C3.06812 11 2.60218 11 2.23463 10.8478C1.74458 10.6448 1.35523 10.2554 1.15224 9.76537C1 9.39782 1 8.93188 1 8V5C1 3.11438 1 2.17157 1.58579 1.58579C2.17157 1 3.11438 1 5 1H8C8.93188 1 9.39782 1 9.76537 1.15224C10.2554 1.35523 10.6448 1.74458 10.8478 2.23463C11 2.60218 11 3.06812 11 4M11 17H13C14.8856 17 15.8284 17 16.4142 16.4142C17 15.8284 17 14.8856 17 13V11C17 9.11438 17 8.17157 16.4142 7.58579C15.8284 7 14.8856 7 13 7H11C9.11438 7 8.17157 7 7.58579 7.58579C7 8.17157 7 9.11438 7 11V13C7 14.8856 7 15.8284 7.58579 16.4142C8.17157 17 9.11438 17 11 17Z" stroke="white" stroke-width="2"/>
</svg>
