<svg width="25" height="25" viewBox="0 0 25 25" fill="none" xmlns="http://www.w3.org/2000/svg">
<path d="M24.9964 6.49512V18.3824C25.0012 18.4162 25.0012 18.4506 24.9964 18.4845C24.9964 18.7806 24.9353 19.0768 24.8843 19.373C24.6423 20.6123 24.0636 21.7608 23.2117 22.692C22.1122 23.9314 20.6013 24.7296 18.959 24.9387L18.4286 25H6.55761H6.45563C5.96476 24.9705 5.47887 24.8848 5.00745 24.7447C4.00083 24.4597 3.07511 23.942 2.30485 23.2333C1.06785 22.136 0.270597 20.6264 0.0611912 18.9849L0 18.4539V6.56658C0.00574676 6.52935 0.00574676 6.49148 0 6.45426C0 6.20916 0.0509925 5.95384 0.0917864 5.70874C0.371528 4.14594 1.1822 2.72804 2.38644 1.69527C3.40796 0.795751 4.677 0.226207 6.02729 0.061272L6.53722 0H18.4286H18.5306C18.8672 0 19.2037 0.0715019 19.5505 0.142989C20.7124 0.39031 21.7888 0.939793 22.6712 1.73612C23.9313 2.8363 24.7412 4.36376 24.9454 6.02532C24.9964 6.14787 24.9964 6.35214 24.9964 6.49512ZM12.4931 19.3832C14.3271 19.3859 16.0875 18.6611 17.3891 17.3673C18.6907 16.0734 19.4275 14.316 19.4383 12.4796C19.4358 10.65 18.7144 8.89482 17.4301 7.59346C16.1458 6.29211 14.4017 5.54907 12.5747 5.52492C11.6563 5.5141 10.7449 5.68609 9.89339 6.03087C9.04189 6.37565 8.26727 6.88636 7.6145 7.53337C6.96172 8.18039 6.4438 8.95082 6.0908 9.79991C5.7378 10.649 5.55675 11.5598 5.55816 12.4796C5.56626 14.3151 6.3008 16.0725 7.60078 17.3666C8.90075 18.6607 10.6601 19.3859 12.4931 19.3832ZM22.2123 4.06455C22.2096 3.69606 22.063 3.34326 21.8037 3.08174C21.5445 2.82022 21.1932 2.67079 20.8253 2.66546C20.4582 2.66813 20.107 2.8153 19.8475 3.0752C19.5879 3.33509 19.4409 3.6868 19.4383 4.05433C19.4369 4.23758 19.4718 4.41929 19.5409 4.58898C19.61 4.75867 19.712 4.91298 19.8409 5.04304C19.9698 5.17309 20.1232 5.27631 20.2921 5.34675C20.4611 5.41718 20.6423 5.45343 20.8253 5.45343C21.1854 5.45104 21.5307 5.3095 21.7891 5.05834C22.0475 4.80717 22.1991 4.46577 22.2123 4.10538V4.06455Z" fill="white"/>
<path d="M12.493 16.6152C11.3955 16.6125 10.3433 16.1769 9.56444 15.4027C8.78556 14.6285 8.34276 13.5781 8.33203 12.4792C8.33203 11.3741 8.77042 10.3143 9.55075 9.53286C10.3311 8.75146 11.3894 8.3125 12.493 8.3125C13.5966 8.3125 14.6549 8.75146 15.4353 9.53286C16.2156 10.3143 16.654 11.3741 16.654 12.4792C16.6432 13.5781 16.2005 14.6285 15.4216 15.4027C14.6427 16.1769 13.5905 16.6125 12.493 16.6152Z" fill="white"/>
</svg>
