<svg width="68" height="58" viewBox="0 0 68 58" fill="none" xmlns="http://www.w3.org/2000/svg">
<path d="M38.9224 1.88233e-06H29.0882C21.5996 -0.00268749 14.3988 2.87652 8.9859 8.03778C3.57301 13.199 0.365498 20.2443 0.0316183 27.7058H0V29.0013V58H38.9224C46.4091 58 53.6073 55.1196 59.0179 49.9586C64.4285 44.7976 67.6346 37.7539 67.9684 30.2942H68V29.0013V1.88233e-06H38.9224Z" fill="white"/>
<path d="M21.9648 23.8218C21.969 21.9255 22.7263 20.1081 24.071 18.7675C25.4157 17.4268 27.2381 16.6722 29.1394 16.6687H45.6938V20.3031H29.1394C28.205 20.3072 27.3101 20.6793 26.6493 21.3383C25.9886 21.9973 25.6156 22.8899 25.6114 23.8218L25.5903 29.9211C25.5149 30.7032 25.1819 31.4384 24.6432 32.0118C24.1045 32.5852 23.3906 32.9644 22.613 33.0903L21.9675 33.1876L21.9648 23.8218Z" fill="#ED1C24"/>
<path d="M21.9648 40.2855V36.6511H38.5219C39.4561 36.6476 40.351 36.2762 41.0118 35.6176C41.6726 34.959 42.0458 34.0667 42.0499 33.135V27.3536C42.054 26.5134 42.3576 25.7021 42.9065 25.0647C43.4553 24.4272 44.2136 24.0053 45.0457 23.8743L45.6886 23.7771V33.135C45.6851 35.0303 44.9286 36.8471 43.5849 38.1873C42.2411 39.5275 40.4196 40.282 38.5193 40.2855H21.9648Z" fill="#ED1C24"/>
<path d="M36.4612 33.2007V28.502L34.3033 31.0747L32.1454 28.502V33.2007H29.2866V23.9558H31.9952L34.3033 26.9279L36.6114 23.9558H39.3199V33.2007H36.4612Z" fill="#ED1C24"/>
</svg>
