<svg width="165" height="55" viewBox="0 0 165 55" fill="none" xmlns="http://www.w3.org/2000/svg">
<g clip-path="url(#clip0_500_3115)">
<path d="M137.202 1.78497e-06H27.8002C20.6407 -0.00254848 13.7562 2.72774 8.58112 7.62203C3.40603 12.5163 0.339431 19.1972 0.0202195 26.2727H-0.0100098V27.5012V55H137.202C144.36 55 151.242 52.2685 156.415 47.3745C161.588 42.4805 164.653 35.8011 164.972 28.7273H165.003V27.5012V1.78497e-06H137.202Z" fill="#ED1C24"/>
<path d="M86.9197 34.4463V19.5644H96.419V23.0207H90.8796V34.4463H86.9197Z" fill="white"/>
<path d="M108.369 34.4463V28.6176H102.487V34.4463H98.5273V19.5644H102.487V25.1189H108.369V19.5644H112.329V34.4463H108.369Z" fill="white"/>
<path d="M130.688 19.5644V23.0207H135.315V34.4463H139.278V23.0207H143.926V19.5644H130.688Z" fill="white"/>
<path d="M124.862 34.4438V25.9637L118.556 34.4438H115.244V19.5644H119.206V27.9573L125.403 19.5644H128.824V34.4438H124.862Z" fill="white"/>
<path d="M64.1575 34.4463V25.6024L60.2051 30.2723L56.2502 25.6024V34.4463H52.2903V19.5644H56.1973L60.2051 24.6804L64.2129 19.5644H68.12V34.4463H64.1575Z" fill="white"/>
<path d="M75.6394 29.2132H79.3222L77.4808 24.5433L75.6394 29.2132ZM81.3853 34.4463L80.5616 32.3581H74.3975L73.5763 34.4463H69.5886L75.6797 19.5644H79.3424L85.4359 34.4463H81.3853Z" fill="white"/>
<path d="M21.626 22.5896C21.63 20.7914 22.354 19.068 23.6396 17.7967C24.9252 16.5254 26.6676 15.8098 28.4853 15.8065H44.3125V19.2529H28.4853C27.592 19.2568 26.7364 19.6096 26.1047 20.2345C25.473 20.8594 25.1163 21.7059 25.1123 22.5896L25.0922 28.3734C25.0201 29.1151 24.7017 29.8123 24.1867 30.356C23.6717 30.8997 22.9891 31.2593 22.2457 31.3787L21.6285 31.4709L21.626 22.5896Z" fill="white"/>
<path d="M21.626 38.2017V34.7553H37.4557C38.3488 34.7521 39.2044 34.3998 39.8362 33.7753C40.468 33.1508 40.8247 32.3046 40.8287 31.4211V25.9388C40.8326 25.1421 41.1228 24.3727 41.6476 23.7682C42.1723 23.1638 42.8972 22.7636 43.6928 22.6394L44.3075 22.5472V31.4211C44.3041 33.2184 43.5809 34.9412 42.2962 36.2121C41.0115 37.483 39.27 38.1984 37.4531 38.2017H21.626Z" fill="white"/>
<path d="M35.0298 31.4834V27.0278L32.9667 29.4674L30.9036 27.0278V31.4834H28.1704V22.7167H30.76L32.9667 25.5351L35.1734 22.7167H37.7629V31.4834H35.0298Z" fill="white"/>
</g>
<defs>
<clipPath id="clip0_500_3115">
<rect width="165" height="55" fill="white"/>
</clipPath>
</defs>
</svg>
