<svg width="59" height="59" viewBox="0 0 59 59" fill="none" xmlns="http://www.w3.org/2000/svg">
<rect width="59" height="59" fill="#E6000E"/>
<g clip-path="url(#clip0_370_9944)">
<rect width="35" height="35" transform="translate(12 12)" fill="#E6000E"/>
<path d="M12 22.5944C12 19.7717 13.0855 17.1139 15.0665 15.1068C17.0476 13.0998 19.6708 12 22.457 12H46.6092V17.3888H22.457C21.091 17.3888 19.8065 17.9296 18.8296 18.9194C17.8526 19.9091 17.3189 21.2197 17.3189 22.6036L17.2827 31.6491C17.0385 34.0503 15.2474 35.984 12.9408 36.3414L12 36.4789V22.5944Z" fill="#E6000E"/>
<path d="M12 22.5944C12 19.7717 13.0855 17.1139 15.0665 15.1068C17.0476 13.0998 19.6708 12 22.457 12H46.6092V17.3888H22.457C21.091 17.3888 19.8065 17.9296 18.8296 18.9194C17.8526 19.9091 17.3189 21.2197 17.3189 22.6036L17.2827 31.6491C17.0385 34.0503 15.2474 35.984 12.9408 36.3414L12 36.4789V22.5944Z" fill="white"/>
<path d="M12 47V41.6112H36.1523C37.5182 41.6112 38.8118 41.0613 39.7796 40.0807C40.7566 39.0909 41.2903 37.7895 41.2903 36.4056L41.2994 27.8275C41.2994 25.2705 43.1809 23.0527 45.6685 22.6678L46.6092 22.5211V36.4056C46.6092 39.2284 45.5147 41.8861 43.5427 43.8932C41.5617 45.9002 38.9384 47 36.1523 47H12Z" fill="#E6000E"/>
<path d="M12 47V41.6112H36.1523C37.5182 41.6112 38.8118 41.0613 39.7796 40.0807C40.7566 39.0909 41.2903 37.7895 41.2903 36.4056L41.2994 27.8275C41.2994 25.2705 43.1809 23.0527 45.6685 22.6678L46.6092 22.5211V36.4056C46.6092 39.2284 45.5147 41.8861 43.5427 43.8932C41.5617 45.9002 38.9384 47 36.1523 47H12Z" fill="white"/>
<path d="M32.4533 36.4973V29.5413L29.3053 33.3447L26.1574 29.5413V36.4973H21.9873V22.7961H25.9403L29.3053 27.2043L32.6794 22.7961H36.6234V36.4973H32.4533Z" fill="#E6000E"/>
<path d="M32.4533 36.4973V29.5413L29.3053 33.3447L26.1574 29.5413V36.4973H21.9873V22.7961H25.9403L29.3053 27.2043L32.6794 22.7961H36.6234V36.4973H32.4533Z" fill="white"/>
</g>
<defs>
<clipPath id="clip0_370_9944">
<rect width="35" height="35" fill="white" transform="translate(12 12)"/>
</clipPath>
</defs>
</svg>
