<svg width="25" height="25" viewBox="0 0 25 25" fill="none" xmlns="http://www.w3.org/2000/svg">
<path d="M23.2425 1.75749C21.4954 2.47939e-06 18.6668 0 13.02 0H11.98C6.33318 0 3.50456 2.47939e-06 1.75747 1.75749C0.0103861 3.51498 0 6.33321 0 11.98V13.02C0 18.6668 -1.33887e-05 21.4954 1.75747 23.2425C3.51496 24.9896 6.33318 25 11.98 25H13.02C18.6668 25 21.4954 25 23.2425 23.2425C24.9896 21.485 25 18.6668 25 13.02V11.98C24.9688 6.33321 24.9688 3.50458 23.2425 1.75749ZM17.9492 17.9805C17.6695 17.0105 17.1134 16.143 16.3489 15.4837C15.5844 14.8244 14.6445 14.402 13.6439 14.2679V17.9805H13.3215C7.63311 17.9805 4.38852 14.0807 4.25332 7.58112H7.10275C7.19634 12.344 9.297 14.3615 10.9609 14.7775V7.58112H13.6439V11.7409C15.287 11.5641 17.0133 9.66097 17.5957 7.6331H20.2787C20.0613 8.70451 19.6249 9.71945 18.9967 10.6142C18.3686 11.509 17.5623 12.2643 16.6285 12.8328C17.6669 13.3496 18.5844 14.08 19.321 14.9761C20.0576 15.8721 20.5965 16.9136 20.9027 18.0324L17.9492 17.9805Z" fill="white"/>
</svg>
