<svg width="30" height="23" viewBox="0 0 30 23" fill="none" xmlns="http://www.w3.org/2000/svg">
<path d="M29.7982 5.07348C29.8529 3.84176 29.4271 2.63824 28.6144 1.72756C27.8016 0.816887 26.6685 0.273635 25.4642 0.217292C22.2136 0.054333 18.91 0 15.5321 0H14.4698C11.0918 0 7.77757 0.054333 4.52706 0.217292C3.32175 0.279172 2.18966 0.827482 1.37915 1.74195C0.568635 2.65642 0.145895 3.86236 0.203675 5.09519C0.0549588 7.22452 -0.012316 9.35386 0.00184744 11.4832C0.0160109 13.6125 0.0797466 15.7491 0.193054 17.8929C0.138171 19.1268 0.563331 20.3327 1.37553 21.2468C2.18773 22.161 3.32086 22.7089 4.52706 22.7708C7.93691 22.9338 11.4317 23.0098 14.9797 22.999C18.5276 22.9881 22.0331 22.9338 25.4429 22.7708C26.6529 22.7145 27.7914 22.1689 28.6082 21.2542C29.4249 20.3394 29.8529 19.1304 29.7982 17.8929C29.9327 15.7201 30 13.5836 30 11.4832C30 9.38283 29.9363 7.24626 29.8088 5.07348H29.7982ZM12.0903 17.3606V5.59492L20.5884 11.4723L12.0903 17.3606Z" fill="white"/>
</svg>
